<?xml version="1.0" encoding="utf-8"?>
<!-- Generator: Adobe Illustrator 27.5.0, SVG Export Plug-In . SVG Version: 6.00 Build 0)  -->
<svg version="1.1" xmlns="http://www.w3.org/2000/svg" xmlns:xlink="http://www.w3.org/1999/xlink" x="0px" y="0px"
	 viewBox="0 0 2200 2200" style="enable-background:new 0 0 2200 2200;" xml:space="preserve">
<g id="Background">
	<rect style="fill:transparent;" width="2200" height="2200"/>
</g>
<g id="Objects">
	<g>
        <circle style="fill:#5c5a49;" cx="1100" cy="1100" r="858"/>   <!-- Outer circle: deep royal blue -->
        <circle style="fill:#545146;" cx="1100" cy="1100" r="820"/>   <!-- Inner circle: gold -->
		<path style="fill:#FFFFFF;" d="M1100,554.22c-301.43,0-545.78,244.35-545.78,545.78s244.35,545.78,545.78,545.78
			s545.78-244.35,545.78-545.78S1401.43,554.22,1100,554.22z M1100,1609.33c-281.3,0-509.33-228.03-509.33-509.33
			S818.7,590.67,1100,590.67S1609.33,818.7,1609.33,1100S1381.3,1609.33,1100,1609.33z"/>
		<path style="fill:#EAEAEA;" d="M979.2,287.43l-1.54-36.77c39.96-5.71,80.8-8.66,122.34-8.66s82.38,2.95,122.34,8.66l-1.66,39.7
			L979.2,287.43z"/>
		<path style="fill:#FFFFFF;" d="M1049.787,507.376l-2.424-29.146c17.307-1.439,34.932-2.169,52.386-2.169
			c15.222,0,30.601,0.555,45.711,1.649l-2.114,29.171c-14.409-1.044-29.078-1.573-43.598-1.573
			C1083.1,505.308,1066.291,506.003,1049.787,507.376z"/>
		<path style="fill:#FFFFFF;" d="M758.862,606.879l-16.672-24.029c14.269-9.9,29.167-19.344,44.283-28.071
			c13.183-7.611,26.779-14.82,40.412-21.427l12.755,26.32c-13.001,6.301-25.969,13.176-38.543,20.436
			C786.679,588.431,772.469,597.438,758.862,606.879z"/>
		<path style="fill:#FFFFFF;" d="M556.666,838.513l-26.453-12.474c7.407-15.708,15.588-31.336,24.315-46.452
			c7.611-13.183,15.781-26.224,24.284-38.762l24.206,16.416c-8.109,11.957-15.901,24.395-23.161,36.97
			C571.532,808.629,563.729,823.534,556.666,838.513z"/>
		<path style="fill:#FFFFFF;" d="M497.376,1140.213l-29.146,2.424c-1.439-17.307-2.169-34.932-2.169-52.386
			c0-15.222,0.555-30.601,1.649-45.711l29.171,2.114c-1.044,14.409-1.573,29.078-1.573,43.598
			C495.308,1106.9,496.003,1123.709,497.376,1140.213z"/>
		<path style="fill:#FFFFFF;" d="M596.879,1431.138l-24.029,16.672c-9.9-14.269-19.344-29.167-28.071-44.283
			c-7.611-13.183-14.82-26.779-21.427-40.412l26.32-12.755c6.301,13.001,13.176,25.969,20.436,38.543
			C578.431,1403.321,587.438,1417.531,596.879,1431.138z"/>
		<path style="fill:#FFFFFF;" d="M828.513,1633.334l-12.474,26.453c-15.708-7.407-31.336-15.588-46.452-24.315
			c-13.183-7.611-26.224-15.781-38.762-24.284l16.416-24.206c11.957,8.109,24.395,15.901,36.97,23.161
			C798.629,1618.468,813.534,1626.271,828.513,1633.334z"/>
		<path style="fill:#FFFFFF;" d="M1130.213,1692.624l2.424,29.146c-17.307,1.439-34.932,2.169-52.386,2.169
			c-15.222,0-30.601-0.555-45.711-1.649l2.114-29.171c14.409,1.044,29.078,1.573,43.598,1.573
			C1096.9,1694.692,1113.709,1693.997,1130.213,1692.624z"/>
		<path style="fill:#FFFFFF;" d="M1421.138,1593.121l16.672,24.029c-14.269,9.9-29.167,19.344-44.283,28.071
			c-13.183,7.611-26.779,14.82-40.412,21.427l-12.755-26.32c13.001-6.301,25.969-13.176,38.543-20.436
			C1393.321,1611.569,1407.531,1602.562,1421.138,1593.121z"/>
		<path style="fill:#FFFFFF;" d="M1623.334,1361.487l26.453,12.474c-7.407,15.708-15.588,31.336-24.315,46.452
			c-7.611,13.183-15.781,26.224-24.284,38.762l-24.206-16.416c8.109-11.957,15.901-24.395,23.161-36.97
			C1608.468,1391.371,1616.271,1376.466,1623.334,1361.487z"/>
		<path style="fill:#FFFFFF;" d="M1682.624,1059.787l29.146-2.424c1.439,17.307,2.169,34.932,2.169,52.386
			c0,15.222-0.555,30.601-1.649,45.711l-29.171-2.114c1.044-14.409,1.573-29.078,1.573-43.598
			C1684.692,1093.1,1683.997,1076.291,1682.624,1059.787z"/>
		<path style="fill:#FFFFFF;" d="M1583.121,768.862l24.029-16.672c9.9,14.269,19.344,29.167,28.071,44.283
			c7.611,13.183,14.82,26.779,21.427,40.412l-26.32,12.755c-6.301-13.001-13.176-25.969-20.436-38.543
			C1601.569,796.679,1592.562,782.469,1583.121,768.862z"/>
		<path style="fill:#FFFFFF;" d="M1351.487,566.666l12.474-26.453c15.708,7.407,31.336,15.588,46.452,24.315
			c13.183,7.611,26.224,15.781,38.762,24.284l-16.416,24.206c-11.957-8.109-24.395-15.901-36.97-23.161
			C1381.371,581.532,1366.466,573.729,1351.487,566.666z"/>
		<path style="fill:#FFFFFF;" d="M1220.68,290.36l-5.58,133.26c-37.42-6.33-75.88-9.62-115.1-9.62s-77.68,3.29-115.1,9.62
			l-5.7-136.19c36.23-4.9,73.22-7.43,110.8-7.43C1134.48,280,1178.13,283.54,1220.68,290.36z"/>
		<path style="fill:#EAEAEA;" d="M335.894,798.331L303.28,781.28c15.035-37.461,32.9-74.305,53.67-110.28
			s43.745-69.868,68.67-101.62l33.551,21.288L335.894,798.331z"/>
		<path style="fill:#FFFFFF;" d="M459.171,590.668l112.617,71.462c-24.192,29.242-46.271,60.904-65.881,94.87
			c-19.61,33.966-35.991,68.918-49.219,104.49l-120.794-63.159c13.871-33.826,30.175-67.125,48.965-99.671
			C407.099,660.139,431.99,624.107,459.171,590.668z"/>
		<path style="fill:#EAEAEA;" d="M456.694,1610.901l-31.074,19.719c-24.925-31.751-47.9-65.645-68.67-101.62
			s-38.635-72.818-53.67-110.28l35.211-18.412L456.694,1610.901z"/>
		<path style="fill:#FFFFFF;" d="M338.491,1400.308l118.197-61.798c13.228,35.572,29.609,70.524,49.219,104.49
			c19.61,33.965,41.689,65.628,65.881,94.87l-115.094,73.031c-22.358-28.926-43.045-59.695-61.835-92.241
			C372.619,1480.139,353.86,1440.567,338.491,1400.308z"/>
		<path style="fill:#EAEAEA;" d="M1220.8,1912.57l1.54,36.77c-39.96,5.71-80.8,8.66-122.34,8.66c-41.54,0-82.38-2.95-122.34-8.66
			l1.66-39.7L1220.8,1912.57z"/>
		<path style="fill:#FFFFFF;" d="M979.32,1909.64l5.58-133.26c37.42,6.33,75.88,9.62,115.1,9.62s77.68-3.29,115.1-9.62l5.7,136.19
			c-36.23,4.9-73.22,7.43-110.8,7.43C1065.52,1920,1021.87,1916.46,979.32,1909.64z"/>
		<path style="fill:#EAEAEA;" d="M1864.106,1401.669l32.614,17.051c-15.035,37.461-32.9,74.305-53.67,110.28
			s-43.745,69.868-68.67,101.62l-33.551-21.288L1864.106,1401.669z"/>
		<path style="fill:#FFFFFF;" d="M1740.829,1609.332l-112.617-71.462c24.192-29.242,46.271-60.904,65.881-94.87
			s35.991-68.918,49.219-104.49l120.794,63.159c-13.872,33.826-30.176,67.125-48.965,99.671
			C1792.901,1539.861,1768.01,1575.893,1740.829,1609.332z"/>
		<path style="fill:#EAEAEA;" d="M1743.306,589.099l31.074-19.719c24.925,31.751,47.9,65.645,68.67,101.62
			s38.635,72.818,53.67,110.28l-35.211,18.412L1743.306,589.099z"/>
		<path style="fill:#FFFFFF;" d="M1861.509,799.692l-118.197,61.798c-13.228-35.572-29.609-70.524-49.219-104.49
			s-41.689-65.628-65.881-94.87l115.094-73.031c22.359,28.926,43.045,59.695,61.835,92.241
			C1827.381,719.861,1846.14,759.433,1861.509,799.692z"/>
	</g>
</g>
</svg>
